PathFileType	4	(X/Y/Z)	Walk6.trc
DataRate	CameraRate	NumFrames	NumMarkers	Units	OrigDataRate	OrigDataStartFrame	OrigNumFrames
200.000000	200.000000	8	61	mm	200.000000	204	449
Frame#	Times		LFHD		RFHD		CLAV		STRN		LASI		RASI		RACR1		RUA1		RFA1		RWRU		RCAR		LACR1		LUA1		LFA1		LWRU		LCAR		RTH3		RTH2		RTH4		RTB3		RTB4		LTH1		LTH3		LTH2		LTH4		LLFC		LTB1		LTB2		LTB4		RTH1		RTB1		RMT5		RMFC		RToe		RMT1		RMMAL		LElbow		RTB2		LBHD		RLFC		LWRR		RLMAL		RCAL		RWRR		RElbow		T10		RBack		RPSI		RBHD		LTB3		LMFC		LPSI		LToe		LLMAL		C7		RElbowM		LCAL		LElbowM		LMT5		LMT1		LMMAL
			X1	Y1	Z1	X2	Y2	Z2	X3	Y3	Z3	X4	Y4	Z4	X5	Y5	Z5	X6	Y6	Z6	X7	Y7	Z7	X8	Y8	Z8	X9	Y9	Z9	X10	Y10	Z10	X11	Y11	Z11	X12	Y12	Z12	X13	Y13	Z13	X14	Y14	Z14	X15	Y15	Z15	X16	Y16	Z16	X17	Y17	Z17	X18	Y18	Z18	X19	Y19	Z19	X20	Y20	Z20	X21	Y21	Z21	X22	Y22	Z22	X23	Y23	Z23	X24	Y24	Z24	X25	Y25	Z25	X26	Y26	Z26	X27	Y27	Z27	X28	Y28	Z28	X29	Y29	Z29	X30	Y30	Z30	X31	Y31	Z31	X32	Y32	Z32	X33	Y33	Z33	X34	Y34	Z34	X35	Y35	Z35	X36	Y36	Z36	X37	Y37	Z37	X38	Y38	Z38	X39	Y39	Z39	X40	Y40	Z40	X41	Y41	Z41	X42	Y42	Z42	X43	Y43	Z43	X44	Y44	Z44	X45	Y45	Z45	X46	Y46	Z46	X47	Y47	Z47	X48	Y48	Z48	X49	Y49	Z49	X50	Y50	Z50	X51	Y51	Z51	X52	Y52	Z52	X53	Y53	Z53	X54	Y54	Z54	X55	Y55	Z55	X56	Y56	Z56	X57	Y57	Z57	X58	Y58	Z58	X59	Y59	Z59	X60	Y60	Z60	X61	Y61	Z61

204	1.02	-414.28	1580.9	-27.243	-417.84	1586.7	72.706	-461.16	1308.5	27.983	-441.12	1173.5	34.347	-484.85	909.74	-78.742	-490.1	909.71	170.49	-525.83	1347.9	193.84	-527.1	1177.8	247.11	-483.27	890.26	302.18	-419.28	783.37	268.94	-424.2	716.23	317.51	-534.71	1355.5	-125.38	-565.25	1183.4	-186.74	-587.32	897.78	-244.88	-530.18	785.99	-238.69	-557.45	721.96	-274.57	-506.28	568.29	212.2	-463.23	663.21	200.96	-515.81	651.57	224.15	-716.24	242.52	142.8	-641.16	283.64	152.61	-513.93	740.7	-145.12	-486.48	575.12	-104.63	-445.13	671.96	-109.31	-501.48	657.37	-126.78	-461.97	437.57	-78.151	-434.07	339.42	-7.5551	-462.52	251.67	-60.277	-452.45	255.28	0.14513	-522.69	736.96	240.16	-564.51	326.31	158.9	-836.66	114.92	160.8	-511.71	416.21	62.115	-784.65	49.71	119.25	-804.97	96.13	83.087	-813.73	229.72	78.644	-608.21	1032.5	-211.53	-665.37	322.58	192.93	-558.22	1520.7	-52.616	-502.94	419.9	192.1	-599.24	780.89	-237.68	-839.55	232.44	156.95	-881.79	264.27	113.5	-475.67	769.65	304.98	-536.38	1011.6	280.88	-648.84	1204.1	38.378	-649.16	1291.7	107.12	-661.1	953.35	94.898	-561.79	1534.2	90.648	-466.44	172.16	9.0969	-488.83	432.25	51.972	-661.8	960.68	-5.1302	-335.21	27.195	16.571	-526.2	63.36	-33.375	-571.45	1413.2	27.801	-566.45	1004.9	207.73	-585.11	38.107	5.6637	-617.08	1011.3	-139.61	-421.67	24.681	-41.008	-392.94	30.416	43.764	-517.9	84.344	47.086
205	1.025	-407.01	1581.7	-27.23	-410.53	1587.6	72.704	-454.69	1309.8	28.156	-434.5	1174.9	34.749	-477.84	910.51	-78.717	-483.39	911.42	170.42	-519.99	1349	193.98	-521.34	1178.9	247.19	-478.62	891.07	302.38	-415.66	783.38	269.34	-421.21	716.31	317.99	-527.98	1356.8	-125.31	-557.35	1184.7	-186.96	-575.26	898.81	-245.38	-516.29	788.04	-238.78	-542.15	723.72	-275.11	-495.3	570.39	212.32	-453.64	665.95	201.28	-506.29	653.6	224.39	-700.67	243.26	142.77	-625.92	284.96	152.57	-508	741.31	-144.93	-482.6	575.34	-104.67	-440.14	671.74	-108.99	-496.6	657.79	-126.69	-459.97	437.39	-78.156	-432.83	339.11	-7.5374	-461.48	251.46	-60.251	-451.52	255.08	0.19851	-514.65	738.75	240.31	-549.62	328.21	158.83	-817.92	114.77	161.08	-497.85	418.49	62.1	-764.23	50.84	119.68	-785.83	96.419	83.406	-797.91	229.46	78.407	-598.6	1033.3	-212.15	-650.48	323.84	192.77	-551.28	1522.2	-52.524	-489.01	422.3	192.17	-585.23	781.73	-238.27	-823.8	231.92	156.89	-867.18	262.45	113.15	-472.13	770.34	305.54	-530.59	1012.7	280.78	-642.24	1205.1	37.907	-642.81	1292.7	106.71	-654.35	954.51	94.336	-554.76	1535.9	90.699	-465.86	172.02	9.1333	-487.23	432.18	51.866	-654.85	961.8	-5.7298	-335.03	27.123	16.407	-526.08	63.451	-33.337	-565.03	1414.4	27.884	-560.64	1006.1	207.69	-585.04	38.316	5.7291	-607.7	1011.9	-140.36	-421.62	24.702	-40.94	-392.86	30.395	43.822	-517.74	84.465	47.143
206	1.03	-399.77	1582.5	-27.183	-403.23	1588.4	72.733	-448.25	1311.1	28.312	-427.9	1176.2	35.136	-470.85	911.26	-78.658	-476.68	913.11	170.36	-514.16	1350.1	194.11	-515.64	1180	247.27	-474.02	891.9	302.6	-412.04	783.44	269.77	-418.2	716.45	318.48	-521.29	1358.2	-125.25	-549.49	1185.9	-187.16	-563.18	899.9	-245.8	-502.39	790.19	-238.8	-526.82	725.61	-275.54	-484.36	572.55	212.47	-444.11	668.74	201.65	-496.82	655.65	224.67	-684.96	243.81	142.77	-610.63	286.21	152.59	-502.1	741.92	-144.71	-478.78	575.58	-104.7	-435.21	671.52	-108.62	-491.75	658.21	-126.58	-458.06	437.24	-78.144	-431.68	338.84	-7.4803	-460.47	251.27	-60.2	-450.64	254.91	0.28381	-506.65	740.56	240.48	-534.76	330.15	158.84	-798.91	114.33	161.4	-484.04	420.84	62.13	-743.46	51.799	120.17	-766.37	96.437	83.774	-781.9	228.83	78.163	-588.99	1034	-212.75	-635.63	325.01	192.63	-544.35	1523.7	-52.406	-475.2	424.81	192.27	-571.18	782.66	-238.76	-807.9	231.01	156.79	-852.38	260.18	112.74	-468.59	771.07	306.1	-524.89	1013.8	280.7	-635.65	1206.1	37.43	-636.47	1293.6	106.3	-647.59	955.66	93.801	-547.74	1537.5	90.783	-465.31	171.9	9.1965	-485.77	432.15	51.766	-647.89	962.9	-6.3035	-334.86	27.05	16.249	-525.95	63.566	-33.292	-558.63	1415.6	27.967	-554.93	1007.3	207.68	-584.96	38.549	5.8005	-598.33	1012.6	-141.07	-421.57	24.72	-40.863	-392.78	30.365	43.883	-517.58	84.603	47.203
207	1.035	-392.54	1583.2	-27.105	-395.94	1589.3	72.79	-441.82	1312.3	28.451	-421.32	1177.6	35.499	-463.88	911.99	-78.572	-469.97	914.77	170.31	-508.34	1351.2	194.22	-510	1181	247.35	-469.46	892.74	302.83	-408.41	783.56	270.21	-415.17	716.65	319	-514.64	1359.6	-125.19	-541.68	1187.2	-187.36	-551.1	901.05	-246.17	-488.49	792.45	-238.73	-511.49	727.6	-275.85	-473.48	574.77	212.65	-434.64	671.58	202.04	-487.39	657.73	224.97	-669.15	244.16	142.81	-595.3	287.37	152.66	-496.23	742.53	-144.47	-475.01	575.84	-104.71	-430.33	671.31	-108.2	-486.94	658.63	-126.44	-456.25	437.13	-78.119	-430.6	338.61	-7.3947	-459.5	251.13	-60.132	-449.83	254.77	0.39153	-498.68	742.38	240.69	-519.94	332.12	158.94	-779.66	113.61	161.74	-470.27	423.23	62.205	-722.39	52.583	120.75	-746.62	96.191	84.203	-765.7	227.83	77.916	-579.4	1034.9	-213.31	-620.82	326.07	192.52	-537.45	1525.2	-52.265	-461.52	427.42	192.41	-557.1	783.69	-239.15	-791.85	229.72	156.65	-837.41	257.46	112.29	-465.05	771.82	306.66	-519.27	1014.8	280.64	-629.07	1207.1	36.95	-630.14	1294.4	105.88	-640.82	956.81	93.298	-540.72	1539.1	90.897	-464.79	171.82	9.2786	-484.43	432.17	51.669	-640.94	963.98	-6.8442	-334.68	26.976	16.099	-525.82	63.706	-33.241	-552.26	1416.7	28.047	-549.29	1008.4	207.68	-584.88	38.806	5.8786	-588.95	1013.3	-141.73	-421.5	24.737	-40.778	-392.68	30.328	43.945	-517.41	84.758	47.266
208	1.04	-385.34	1584	-27	-388.67	1590.1	72.875	-435.42	1313.6	28.571	-414.75	1179	35.835	-456.91	912.7	-78.467	-463.25	916.39	170.26	-502.53	1352.3	194.31	-504.4	1182	247.43	-464.93	893.58	303.06	-404.77	783.72	270.68	-412.12	716.9	319.54	-508.02	1361	-125.13	-533.91	1188.4	-187.56	-539.02	902.26	-246.47	-474.59	794.82	-238.58	-496.15	729.7	-276.05	-462.65	577.02	212.85	-425.23	674.45	202.47	-478	659.8	225.3	-653.23	244.32	142.89	-579.95	288.44	152.78	-490.37	743.12	-144.2	-471.29	576.11	-104.71	-425.5	671.1	-107.76	-482.16	659.03	-126.27	-454.54	437.06	-78.087	-429.6	338.43	-7.2922	-458.57	251.01	-60.053	-449.06	254.68	0.51171	-490.75	744.2	240.93	-505.17	334.09	159.11	-760.21	112.63	162.13	-456.54	425.66	62.322	-701.08	53.193	121.41	-726.61	95.69	84.703	-749.33	226.46	77.667	-569.82	1035.7	-213.86	-606.07	327	192.42	-530.55	1526.6	-52.104	-447.99	430.12	192.58	-543	784.81	-239.44	-775.65	228.05	156.48	-822.24	254.31	111.79	-461.5	772.59	307.22	-513.72	1015.9	280.59	-622.5	1208.1	36.472	-623.82	1295.3	105.46	-634.06	957.93	92.831	-533.71	1540.6	91.037	-464.3	171.77	9.3721	-483.2	432.24	51.574	-633.99	965.04	-7.3465	-334.51	26.903	15.956	-525.68	63.874	-33.183	-545.91	1417.8	28.12	-543.74	1009.6	207.7	-584.79	39.09	5.9649	-579.59	1014	-142.34	-421.44	24.752	-40.686	-392.59	30.285	44.007	-517.24	84.932	47.332
209	1.045	-378.15	1584.7	-26.87	-381.43	1590.8	72.984	-429.03	1314.8	28.674	-408.19	1180.3	36.137	-449.97	913.39	-78.349	-456.54	917.96	170.22	-496.71	1353.3	194.38	-498.84	1183	247.5	-460.45	894.41	303.3	-401.12	783.91	271.17	-409.04	717.18	320.1	-501.43	1362.4	-125.08	-526.16	1189.7	-187.76	-526.94	903.52	-246.71	-460.7	797.28	-238.36	-480.82	731.9	-276.13	-451.89	579.31	213.08	-415.89	677.34	202.92	-468.64	661.86	225.65	-637.22	244.28	143.01	-564.58	289.4	152.95	-484.55	743.69	-143.92	-467.63	576.4	-104.71	-420.73	670.91	-107.29	-477.43	659.43	-126.08	-452.91	437.02	-78.052	-428.65	338.29	-7.1842	-457.68	250.94	-59.971	-448.33	254.61	0.63457	-482.84	746.01	241.19	-490.46	336.06	159.37	-740.57	111.39	162.55	-442.83	428.11	62.481	-679.55	53.631	122.17	-706.37	94.946	85.278	-732.78	224.74	77.423	-560.27	1036.6	-214.37	-591.38	327.8	192.34	-523.67	1528.1	-51.926	-434.61	432.88	192.78	-528.88	786.02	-239.63	-759.32	226.02	156.27	-806.86	250.75	111.24	-457.94	773.36	307.78	-508.25	1016.9	280.54	-615.94	1209	35.998	-617.5	1296.1	105.03	-627.29	959.03	92.401	-526.7	1542.1	91.199	-463.82	171.76	9.4694	-482.07	432.37	51.481	-627.04	966.07	-7.8066	-334.35	26.829	15.819	-525.54	64.07	-33.117	-539.58	1418.9	28.184	-538.25	1010.7	207.72	-584.7	39.4	6.061	-570.24	1014.8	-142.92	-421.37	24.765	-40.587	-392.49	30.24	44.067	-517.05	85.125	47.402
210	1.05	-370.99	1585.4	-26.718	-374.2	1591.5	73.115	-422.64	1316	28.76	-401.65	1181.6	36.402	-443.06	914.05	-78.225	-449.84	919.46	170.17	-490.9	1354.2	194.44	-493.3	1183.9	247.56	-455.99	895.22	303.55	-397.45	784.14	271.68	-405.94	717.49	320.68	-494.85	1363.8	-125.03	-518.44	1190.9	-187.95	-514.89	904.83	-246.9	-446.83	799.83	-238.06	-465.51	734.19	-276.1	-441.2	581.6	213.34	-406.62	680.23	203.41	-459.32	663.9	226.02	-621.12	244.05	143.16	-549.2	290.26	153.17	-478.77	744.25	-143.62	-464.02	576.7	-104.69	-416.02	670.71	-106.8	-472.74	659.81	-125.88	-451.36	437.01	-78.019	-427.74	338.19	-7.0813	-456.84	250.91	-59.891	-447.63	254.57	0.75095	-474.97	747.79	241.49	-475.82	338.02	159.7	-720.77	109.92	163.02	-429.18	430.57	62.68	-657.86	53.903	123.03	-685.93	93.971	85.931	-716.06	222.67	77.187	-550.75	1037.4	-214.87	-576.75	328.46	192.28	-516.81	1529.5	-51.734	-421.4	435.68	193.01	-514.76	787.32	-239.73	-742.84	223.64	156.04	-791.27	246.79	110.65	-454.37	774.14	308.32	-502.85	1017.9	280.51	-609.39	1209.8	35.532	-611.18	1296.8	104.6	-620.52	960.09	92.011	-519.7	1543.5	91.38	-463.36	171.78	9.5638	-481.02	432.55	51.392	-620.1	967.06	-8.2219	-334.19	26.756	15.69	-525.41	64.295	-33.042	-533.26	1420	28.237	-532.82	1011.8	207.75	-584.6	39.739	6.169	-560.91	1015.5	-143.45	-421.29	24.777	-40.484	-392.39	30.192	44.126	-516.86	85.34	47.477
211	1.055	-363.85	1586.1	-26.548	-366.99	1592.1	73.266	-416.26	1317.1	28.83	-395.11	1182.8	36.627	-436.16	914.68	-78.101	-443.13	920.9	170.14	-485.07	1355.2	194.47	-487.77	1184.8	247.61	-451.56	896.01	303.8	-393.76	784.38	272.22	-402.8	717.82	321.28	-488.28	1365.1	-124.99	-510.73	1192.2	-188.14	-502.85	906.17	-247.02	-432.97	802.46	-237.69	-450.22	736.58	-275.96	-430.6	583.9	213.63	-397.42	683.11	203.93	-450.04	665.9	226.4	-604.92	243.62	143.34	-533.81	291.01	153.44	-473.02	744.79	-143.31	-460.47	577.01	-104.66	-411.37	670.5	-106.3	-468.1	660.17	-125.66	-449.9	437.04	-77.992	-426.86	338.12	-6.9921	-456.06	250.92	-59.819	-446.94	254.57	0.85279	-467.13	749.53	241.82	-461.26	339.96	160.11	-700.82	108.22	163.53	-415.59	433.04	62.918	-636.02	54.016	124	-665.29	92.782	86.66	-699.16	220.27	76.965	-541.26	1038.3	-215.35	-562.19	328.96	192.25	-509.95	1530.9	-51.531	-408.36	438.52	193.27	-500.63	788.69	-239.72	-726.22	220.93	155.8	-775.46	242.45	110.04	-450.79	774.9	308.86	-497.51	1018.9	280.48	-602.83	1210.7	35.074	-604.86	1297.5	104.16	-613.76	961.12	91.661	-512.71	1544.8	91.577	-462.91	171.83	9.6496	-480.03	432.78	51.307	-613.17	968.01	-8.5913	-334.04	26.684	15.568	-525.27	64.549	-32.957	-526.94	1421	28.277	-527.45	1012.8	207.76	-584.5	40.106	6.2908	-551.6	1016.3	-143.94	-421.22	24.786	-40.375	-392.29	30.144	44.182	-516.64	85.578	47.557
